<svg xmlns="http://www.w3.org/2000/svg" viewBox="0 0 250.72 258.65">
    <defs>
        <style>
            .cls-1 {
                font-size: 13px;
                font-family: ClashDisplay-Medium, Clash Display;
                font-weight: 500;
            }
            .cls-2 {
                fill: #111f23;
            }
            .cls-3 {
                fill: #1a1e21;
            }
            .cls-4,
            .cls-8 {
                fill: #0a0b0c;
            }
            .cls-5 {
                fill: #494949;
            }
            .cls-6 {
                fill: #282828;
            }
            .cls-7 {
                fill: #212121;
            }
            .cls-8,
            .cls-9 {
                stroke: #fff;
            }
            .cls-11,
            .cls-14,
            .cls-8 {
                stroke-miterlimit: 10;
            }
            .cls-10,
            .cls-9 {
                fill: #fff;
            }
            .cls-9 {
                stroke-linejoin: round;
                stroke-width: 0.2px;
            }
            .cls-11,
            .cls-14 {
                fill: none;
                stroke: #000;
            }
            .cls-12 {
                font-size: 5px;
                font-family: ClashDisplay-Regular, Clash Display;
            }
            .cls-13 {
                fill: #e2e2e2;
            }
            .cls-14 {
                stroke-linecap: round;
            }
        </style>
    </defs>
    <title>graph_borne_vrai_2</title>
    <g id="Calque_2" data-name="Calque 2">
        <g id="Calque_2-2" data-name="Calque 2">
            <rect class = "rectangle_1" y="194.5" width="30.4" height="42.31" rx="11.92"/>
            <text class="cls-1" transform="translate(6.44 187.63)">26</text>
            <rect class = "rectangle_2" x="37.53" y="154.76" width="30.4" height="82.06" rx="11.92"/>
            <text class="cls-1" transform="translate(43.75 148.24)">86</text>
            <rect class = "rectangle_3" x="75.06" y="134.24" width="30.4" height="102.58" rx="11.92"/>
            <text class="cls-1" transform="translate(81.47 127.37)">116</text>
            <rect class = "rectangle_4" x="112.59" y="63.14" width="30.4" height="173.67" rx="11.92"/>
            <text class="cls-1" transform="translate(116.88 56.27)">198</text>
            <rect class = "rectangle_5" x="150.12" y="17.73" width="30.4" height="219.09" rx="11.92"/>
            <text class="cls-1" transform="translate(152.54 10.85)">374</text>
            <path class="cls-2" d="M241.56,236.34a3,3,0,0,1-1.61.48h-.86A6.55,6.55,0,0,0,241.56,236.34Z"/>
            <path class="cls-3" d="M250.72,28.29V230a6.8,6.8,0,0,1-4.36,6.35,6.55,6.55,0,0,1-2.47.48H208a6.69,6.69,0,0,1-2.46-.47,6.81,6.81,0,0,1-4.37-6.36V28.29a6.78,6.78,0,0,1,3-5.64V20.71a3,3,0,0,1,3-3h37.58a3,3,0,0,1,3,3v1.94A6.78,6.78,0,0,1,250.72,28.29Z"/>
            <path class="cls-4" d="M250.72,28.29V230a6.8,6.8,0,0,1-4.36,6.35,6.55,6.55,0,0,1-2.47.48h-7V17.73h7.91a3,3,0,0,1,3,3v1.94A6.78,6.78,0,0,1,250.72,28.29Z"/>
            <path class="cls-5" d="M232.23,83.3v39.25a3.65,3.65,0,0,1-3.66,3.65H209.21a3.63,3.63,0,0,1-3.33-2.19l-.06-.13a3.47,3.47,0,0,1-.26-1.33V83.3a3.59,3.59,0,0,1,.75-2.2l.1-.12a3.56,3.56,0,0,1,2.8-1.33h19.36A3.65,3.65,0,0,1,232.23,83.3Z"/>
            <path class="cls-6" d="M232.23,93.85v28.7a3.65,3.65,0,0,1-3.66,3.65H209.21a3.63,3.63,0,0,1-3.33-2.19L209,93.85Z"/>
            <path class="cls-7" d="M232.22,83.3V93.84H209L206.41,81a3.55,3.55,0,0,1,2.8-1.34h19.36A3.65,3.65,0,0,1,232.22,83.3Z"/>
            <path class="cls-8" d="M216.28,100.67l-1.7,17.15a1.14,1.14,0,0,0,1.13,1.25H223a1.13,1.13,0,0,0,1.13-1.06l1.06-17.16A1.14,1.14,0,0,0,224,99.64h-6.62A1.15,1.15,0,0,0,216.28,100.67Z"/>
            <polygon class="cls-9" points="219.06 99.47 219.19 98.49 222.49 98.49 222.39 99.47 219.06 99.47"/>
            <path class="cls-10" d="M219.76,31.82h5.53a.36.36,0,0,1,.31.53l-3.79,6.94a.36.36,0,0,0,.31.54h3.94a.35.35,0,0,1,.29.56L217,53.75a.36.36,0,0,1-.64-.3L219,44.13a.37.37,0,0,0-.35-.46h-5a.36.36,0,0,1-.32-.53L219.44,32A.35.35,0,0,1,219.76,31.82Z"/>
            <circle class="cls-10" cx="218.02" cy="148.74" r="6.37"/>
            <circle cx="14.83" cy="247.66" r="3.1"/>
            <line class="cls-11" x1="14.84" y1="247.66" x2="165.32" y2="247.66"/>
            <circle cx="52.73" cy="247.66" r="3.1"/>
            <circle cx="90.27" cy="247.66" r="3.1"/>
            <circle cx="127.79" cy="247.66" r="3.1"/>
            <circle cx="165.33" cy="247.66" r="3.1"/>
            <text class="cls-12" transform="translate(8.2 257.63)">2020</text>
            <text class="cls-12" transform="translate(46.88 257.63)">2021</text>
            <text class="cls-12" transform="translate(83.79 257.63)">2022</text>
            <text class="cls-12" transform="translate(121.31 257.63)">2023</text>
            <text class="cls-12" transform="translate(158.81 257.63)">2024</text>
            <circle class="cls-13" cx="218.02" cy="148.74" r="4.97"/>
            <path class="cls-14" d="M217,149.51a7.1,7.1,0,0,1-1.73.46c-8.34,1.1-11-11.29-20-8.37-10.29,3.32-8.41,13.84-5.46,21.6,3.88,10.22,7.41,20.15,6.35,31.3C194.44,212.12,184.26,218,188,233c.81,3.26,2.82,9.13-.05,12.32-1.3,1.44-3.23,1.94-10.69,2.29-5.37.26-10.19.27-14.32.17"/>
            <rect id="batterie" class="cls-10" x="215.49" y="101.57" width="8.85" height="17.25" transform="translate(6.96 -12.92) rotate(3.42)"/>
        </g>
    </g>
</svg>
